<svg width="920" height="651" viewBox="0 0 920 651" class="keymap" xmlns="http://www.w3.org/2000/svg" xmlns:xlink="http://www.w3.org/1999/xlink">
<defs>/* start glyphs */
<svg id="mdi:minus-circle-outline">
<svg xmlns="http://www.w3.org/2000/svg" id="mdi-minus-circle-outline" viewBox="0 0 24 24"><path d="M12,20C7.59,20 4,16.41 4,12C4,7.59 7.59,4 12,4C16.41,4 20,7.59 20,12C20,16.41 16.41,20 12,20M12,2A10,10 0 0,0 2,12A10,10 0 0,0 12,22A10,10 0 0,0 22,12A10,10 0 0,0 12,2M7,13H17V11H7" /></svg>
</svg>
</defs>/* end glyphs */
<style>/* inherit to force styles through use tags */
svg path {
    fill: inherit;
}

/* font and background color specifications */
svg.keymap {
    font-family: SFMono-Regular,Consolas,Liberation Mono,Menlo,monospace;
    font-size: 14px;
    font-kerning: normal;
    text-rendering: optimizeLegibility;
    fill: #24292e;
}

/* default key styling */
rect.key {
    fill: #f6f8fa;
}

rect.key, rect.combo {
    stroke: #c9cccf;
    stroke-width: 1;
}

/* default key side styling, only used is draw_key_sides is set */
rect.side {
    filter: brightness(90%);
}

/* color accent for combo boxes */
rect.combo, rect.combo-separate {
    fill: #cdf;
}

/* color accent for held keys */
rect.held, rect.combo.held {
    fill: #fdd;
}

/* color accent for ghost (optional) keys */
rect.ghost, rect.combo.ghost {
    stroke-dasharray: 4, 4;
    stroke-width: 2;
}

text {
    text-anchor: middle;
    dominant-baseline: middle;
}

/* styling for layer labels */
text.label {
    font-weight: bold;
    text-anchor: start;
    stroke: white;
    stroke-width: 4;
    paint-order: stroke;
}

/* styling for optional footer */
text.footer {
    text-anchor: end;
    dominant-baseline: auto;
    stroke: white;
    stroke-width: 4;
    paint-order: stroke;
}

/* styling for combo tap, and key non-tap label text */
text.combo, text.hold, text.shifted, text.left, text.right {
    font-size: 11px;
}

text.hold {
    text-anchor: middle;
    dominant-baseline: auto;
}

text.shifted {
    text-anchor: middle;
    dominant-baseline: hanging;
}

text.left {
    text-anchor: start;
}

text.right {
    text-anchor: end;
}

text.layer-activator {
    text-decoration: underline;
}

/* styling for hold/shifted label text in combo box */
text.combo.hold, text.combo.shifted, text.combo.left, text.combo.right {
    font-size: 8px;
}

/* lighter symbol for transparent keys */
text.trans {
    fill: #7b7e81;
}

/* styling for combo dendrons */
path.combo {
    stroke-width: 1;
    stroke: gray;
    fill: none;
}

/* Start Tabler Icons Cleanup */
/* cannot use height/width with glyphs */
.icon-tabler > path {
    fill: inherit;
    stroke: inherit;
    stroke-width: 2;
}
/* hide tabler's default box */
.icon-tabler > path[stroke="none"][fill="none"] {
    visibility: hidden;
}
/* End Tabler Icons Cleanup */

/* For default sytles, see https://github.com/caksoylar/keymap-drawer/blob/main/keymap_drawer/config.py#L85 */

svg.keymap {
  font-family: Ubuntu Mono, Inconsolata, Consolas, Liberation Mono, Menlo, monospace;
  font-size: 12px;
  font-weight: bold;
  text-rendering: optimizeLegibility;
}

/* Color accent for held keys */
rect.held, rect.combo.held {
    fill: #ffc;
}

/* Technique borrowed and extended from https://github.com/englmaxi/zmk-config/blob/master/keymap-drawer/config.yaml */
.sym_sub_text.tap {
  translate: -5px 2px;
  font-size: 20px;
}
.sym_sub_text.shifted {
  translate: 10px 13px;
  font-size: 10px;
  opacity: 1.0;
}
.combo.sym_sub_text.tap {
  translate: -1px 1px;
}
.combo.sym_sub_text.shifted {
  translate: 7px 5px;
  font-size: 10px;
  opacity: 1.0;
}

/* Toggle */
.toggle.shifted {
  translate: -10px 12px;
}

.toggle.hold {
  translate: 13px -23px;
}

/* Variant for tap-dances */
.tap_dance.tap {
  translate: -7px 0px;
  font-size: 12px;
}
.tap_dance.shifted {
  translate: 7px 17px;
  font-size: 12px;
  opacity: 1.0;
}

/* Variant for symbol next to symbol */
.sym_by_sym.tap {
  translate: -6px 0px;
}
.sym_by_sym.shifted {
  translate: 10px 12px;
  opacity: 1.0;
}

.combo.sym_by_sym.tap {
  translate: -35px 0px;
}
.combo.sym_by_sym.shifted {
  translate: 35px 20px;
  opacity: 1.0;
}

.combo.sym_by_sym.hold {
  visibility: hidden;
}

/* hide hold box for combo sym_by_sym */
.combo.sym_by_sym.hold > path[stroke="none"][fill="none"] {
  visibility: hidden;
}
</style>
<g transform="translate(40, 0)" class="layer-default">
<text x="0" y="28" class="label" id="default">default:</text>
<g transform="translate(0, 56)">
<g transform="translate(28, 49)" class="key none keypos-0">
<rect rx="6" ry="6" x="-26" y="-26" width="52" height="52" class="key none side"/>
<rect rx="4" ry="4" x="-20" y="-24" width="40" height="40" class="key none"/>
<use href="#mdi:minus-circle-outline" xlink:href="#mdi:minus-circle-outline" x="-9" y="-13" height="18" width="18.0" class="key none tap glyph mdi:minus-circle-outline"/>
</g>
<g transform="translate(84, 49)" class="key none keypos-1">
<rect rx="6" ry="6" x="-26" y="-26" width="52" height="52" class="key none side"/>
<rect rx="4" ry="4" x="-20" y="-24" width="40" height="40" class="key none"/>
<use href="#mdi:minus-circle-outline" xlink:href="#mdi:minus-circle-outline" x="-9" y="-13" height="18" width="18.0" class="key none tap glyph mdi:minus-circle-outline"/>
</g>
<g transform="translate(140, 49)" class="key none keypos-2">
<rect rx="6" ry="6" x="-26" y="-26" width="52" height="52" class="key none side"/>
<rect rx="4" ry="4" x="-20" y="-24" width="40" height="40" class="key none"/>
<use href="#mdi:minus-circle-outline" xlink:href="#mdi:minus-circle-outline" x="-9" y="-13" height="18" width="18.0" class="key none tap glyph mdi:minus-circle-outline"/>
</g>
<g transform="translate(196, 35)" class="key none keypos-3">
<rect rx="6" ry="6" x="-26" y="-26" width="52" height="52" class="key none side"/>
<rect rx="4" ry="4" x="-20" y="-24" width="40" height="40" class="key none"/>
<use href="#mdi:minus-circle-outline" xlink:href="#mdi:minus-circle-outline" x="-9" y="-13" height="18" width="18.0" class="key none tap glyph mdi:minus-circle-outline"/>
</g>
<g transform="translate(252, 28)" class="key none keypos-4">
<rect rx="6" ry="6" x="-26" y="-26" width="52" height="52" class="key none side"/>
<rect rx="4" ry="4" x="-20" y="-24" width="40" height="40" class="key none"/>
<use href="#mdi:minus-circle-outline" xlink:href="#mdi:minus-circle-outline" x="-9" y="-13" height="18" width="18.0" class="key none tap glyph mdi:minus-circle-outline"/>
</g>
<g transform="translate(308, 35)" class="key none keypos-5">
<rect rx="6" ry="6" x="-26" y="-26" width="52" height="52" class="key none side"/>
<rect rx="4" ry="4" x="-20" y="-24" width="40" height="40" class="key none"/>
<use href="#mdi:minus-circle-outline" xlink:href="#mdi:minus-circle-outline" x="-9" y="-13" height="18" width="18.0" class="key none tap glyph mdi:minus-circle-outline"/>
</g>
<g transform="translate(364, 42)" class="key none keypos-6">
<rect rx="6" ry="6" x="-26" y="-26" width="52" height="52" class="key none side"/>
<rect rx="4" ry="4" x="-20" y="-24" width="40" height="40" class="key none"/>
<use href="#mdi:minus-circle-outline" xlink:href="#mdi:minus-circle-outline" x="-9" y="-13" height="18" width="18.0" class="key none tap glyph mdi:minus-circle-outline"/>
</g>
<g transform="translate(476, 42)" class="key none keypos-7">
<rect rx="6" ry="6" x="-26" y="-26" width="52" height="52" class="key none side"/>
<rect rx="4" ry="4" x="-20" y="-24" width="40" height="40" class="key none"/>
<use href="#mdi:minus-circle-outline" xlink:href="#mdi:minus-circle-outline" x="-9" y="-13" height="18" width="18.0" class="key none tap glyph mdi:minus-circle-outline"/>
</g>
<g transform="translate(532, 35)" class="key none keypos-8">
<rect rx="6" ry="6" x="-26" y="-26" width="52" height="52" class="key none side"/>
<rect rx="4" ry="4" x="-20" y="-24" width="40" height="40" class="key none"/>
<use href="#mdi:minus-circle-outline" xlink:href="#mdi:minus-circle-outline" x="-9" y="-13" height="18" width="18.0" class="key none tap glyph mdi:minus-circle-outline"/>
</g>
<g transform="translate(588, 28)" class="key none keypos-9">
<rect rx="6" ry="6" x="-26" y="-26" width="52" height="52" class="key none side"/>
<rect rx="4" ry="4" x="-20" y="-24" width="40" height="40" class="key none"/>
<use href="#mdi:minus-circle-outline" xlink:href="#mdi:minus-circle-outline" x="-9" y="-13" height="18" width="18.0" class="key none tap glyph mdi:minus-circle-outline"/>
</g>
<g transform="translate(644, 35)" class="key none keypos-10">
<rect rx="6" ry="6" x="-26" y="-26" width="52" height="52" class="key none side"/>
<rect rx="4" ry="4" x="-20" y="-24" width="40" height="40" class="key none"/>
<use href="#mdi:minus-circle-outline" xlink:href="#mdi:minus-circle-outline" x="-9" y="-13" height="18" width="18.0" class="key none tap glyph mdi:minus-circle-outline"/>
</g>
<g transform="translate(700, 49)" class="key none keypos-11">
<rect rx="6" ry="6" x="-26" y="-26" width="52" height="52" class="key none side"/>
<rect rx="4" ry="4" x="-20" y="-24" width="40" height="40" class="key none"/>
<use href="#mdi:minus-circle-outline" xlink:href="#mdi:minus-circle-outline" x="-9" y="-13" height="18" width="18.0" class="key none tap glyph mdi:minus-circle-outline"/>
</g>
<g transform="translate(756, 49)" class="key none keypos-12">
<rect rx="6" ry="6" x="-26" y="-26" width="52" height="52" class="key none side"/>
<rect rx="4" ry="4" x="-20" y="-24" width="40" height="40" class="key none"/>
<use href="#mdi:minus-circle-outline" xlink:href="#mdi:minus-circle-outline" x="-9" y="-13" height="18" width="18.0" class="key none tap glyph mdi:minus-circle-outline"/>
</g>
<g transform="translate(812, 49)" class="key none keypos-13">
<rect rx="6" ry="6" x="-26" y="-26" width="52" height="52" class="key none side"/>
<rect rx="4" ry="4" x="-20" y="-24" width="40" height="40" class="key none"/>
<use href="#mdi:minus-circle-outline" xlink:href="#mdi:minus-circle-outline" x="-9" y="-13" height="18" width="18.0" class="key none tap glyph mdi:minus-circle-outline"/>
</g>
<g transform="translate(28, 105)" class="key none keypos-14">
<rect rx="6" ry="6" x="-26" y="-26" width="52" height="52" class="key none side"/>
<rect rx="4" ry="4" x="-20" y="-24" width="40" height="40" class="key none"/>
<use href="#mdi:minus-circle-outline" xlink:href="#mdi:minus-circle-outline" x="-9" y="-13" height="18" width="18.0" class="key none tap glyph mdi:minus-circle-outline"/>
</g>
<g transform="translate(84, 105)" class="key none keypos-15">
<rect rx="6" ry="6" x="-26" y="-26" width="52" height="52" class="key none side"/>
<rect rx="4" ry="4" x="-20" y="-24" width="40" height="40" class="key none"/>
<use href="#mdi:minus-circle-outline" xlink:href="#mdi:minus-circle-outline" x="-9" y="-13" height="18" width="18.0" class="key none tap glyph mdi:minus-circle-outline"/>
</g>
<g transform="translate(140, 105)" class="key none keypos-16">
<rect rx="6" ry="6" x="-26" y="-26" width="52" height="52" class="key none side"/>
<rect rx="4" ry="4" x="-20" y="-24" width="40" height="40" class="key none"/>
<use href="#mdi:minus-circle-outline" xlink:href="#mdi:minus-circle-outline" x="-9" y="-13" height="18" width="18.0" class="key none tap glyph mdi:minus-circle-outline"/>
</g>
<g transform="translate(196, 91)" class="key none keypos-17">
<rect rx="6" ry="6" x="-26" y="-26" width="52" height="52" class="key none side"/>
<rect rx="4" ry="4" x="-20" y="-24" width="40" height="40" class="key none"/>
<use href="#mdi:minus-circle-outline" xlink:href="#mdi:minus-circle-outline" x="-9" y="-13" height="18" width="18.0" class="key none tap glyph mdi:minus-circle-outline"/>
</g>
<g transform="translate(252, 84)" class="key none keypos-18">
<rect rx="6" ry="6" x="-26" y="-26" width="52" height="52" class="key none side"/>
<rect rx="4" ry="4" x="-20" y="-24" width="40" height="40" class="key none"/>
<use href="#mdi:minus-circle-outline" xlink:href="#mdi:minus-circle-outline" x="-9" y="-13" height="18" width="18.0" class="key none tap glyph mdi:minus-circle-outline"/>
</g>
<g transform="translate(308, 91)" class="key none keypos-19">
<rect rx="6" ry="6" x="-26" y="-26" width="52" height="52" class="key none side"/>
<rect rx="4" ry="4" x="-20" y="-24" width="40" height="40" class="key none"/>
<use href="#mdi:minus-circle-outline" xlink:href="#mdi:minus-circle-outline" x="-9" y="-13" height="18" width="18.0" class="key none tap glyph mdi:minus-circle-outline"/>
</g>
<g transform="translate(364, 98)" class="key none keypos-20">
<rect rx="6" ry="6" x="-26" y="-26" width="52" height="52" class="key none side"/>
<rect rx="4" ry="4" x="-20" y="-24" width="40" height="40" class="key none"/>
<use href="#mdi:minus-circle-outline" xlink:href="#mdi:minus-circle-outline" x="-9" y="-13" height="18" width="18.0" class="key none tap glyph mdi:minus-circle-outline"/>
</g>
<g transform="translate(476, 98)" class="key none keypos-21">
<rect rx="6" ry="6" x="-26" y="-26" width="52" height="52" class="key none side"/>
<rect rx="4" ry="4" x="-20" y="-24" width="40" height="40" class="key none"/>
<use href="#mdi:minus-circle-outline" xlink:href="#mdi:minus-circle-outline" x="-9" y="-13" height="18" width="18.0" class="key none tap glyph mdi:minus-circle-outline"/>
</g>
<g transform="translate(532, 91)" class="key none keypos-22">
<rect rx="6" ry="6" x="-26" y="-26" width="52" height="52" class="key none side"/>
<rect rx="4" ry="4" x="-20" y="-24" width="40" height="40" class="key none"/>
<use href="#mdi:minus-circle-outline" xlink:href="#mdi:minus-circle-outline" x="-9" y="-13" height="18" width="18.0" class="key none tap glyph mdi:minus-circle-outline"/>
</g>
<g transform="translate(588, 84)" class="key none keypos-23">
<rect rx="6" ry="6" x="-26" y="-26" width="52" height="52" class="key none side"/>
<rect rx="4" ry="4" x="-20" y="-24" width="40" height="40" class="key none"/>
<use href="#mdi:minus-circle-outline" xlink:href="#mdi:minus-circle-outline" x="-9" y="-13" height="18" width="18.0" class="key none tap glyph mdi:minus-circle-outline"/>
</g>
<g transform="translate(644, 91)" class="key none keypos-24">
<rect rx="6" ry="6" x="-26" y="-26" width="52" height="52" class="key none side"/>
<rect rx="4" ry="4" x="-20" y="-24" width="40" height="40" class="key none"/>
<use href="#mdi:minus-circle-outline" xlink:href="#mdi:minus-circle-outline" x="-9" y="-13" height="18" width="18.0" class="key none tap glyph mdi:minus-circle-outline"/>
</g>
<g transform="translate(700, 105)" class="key none keypos-25">
<rect rx="6" ry="6" x="-26" y="-26" width="52" height="52" class="key none side"/>
<rect rx="4" ry="4" x="-20" y="-24" width="40" height="40" class="key none"/>
<use href="#mdi:minus-circle-outline" xlink:href="#mdi:minus-circle-outline" x="-9" y="-13" height="18" width="18.0" class="key none tap glyph mdi:minus-circle-outline"/>
</g>
<g transform="translate(756, 105)" class="key none keypos-26">
<rect rx="6" ry="6" x="-26" y="-26" width="52" height="52" class="key none side"/>
<rect rx="4" ry="4" x="-20" y="-24" width="40" height="40" class="key none"/>
<use href="#mdi:minus-circle-outline" xlink:href="#mdi:minus-circle-outline" x="-9" y="-13" height="18" width="18.0" class="key none tap glyph mdi:minus-circle-outline"/>
</g>
<g transform="translate(812, 105)" class="key none keypos-27">
<rect rx="6" ry="6" x="-26" y="-26" width="52" height="52" class="key none side"/>
<rect rx="4" ry="4" x="-20" y="-24" width="40" height="40" class="key none"/>
<use href="#mdi:minus-circle-outline" xlink:href="#mdi:minus-circle-outline" x="-9" y="-13" height="18" width="18.0" class="key none tap glyph mdi:minus-circle-outline"/>
</g>
<g transform="translate(28, 161)" class="key none keypos-28">
<rect rx="6" ry="6" x="-26" y="-26" width="52" height="52" class="key none side"/>
<rect rx="4" ry="4" x="-20" y="-24" width="40" height="40" class="key none"/>
<use href="#mdi:minus-circle-outline" xlink:href="#mdi:minus-circle-outline" x="-9" y="-13" height="18" width="18.0" class="key none tap glyph mdi:minus-circle-outline"/>
</g>
<g transform="translate(84, 161)" class="key none keypos-29">
<rect rx="6" ry="6" x="-26" y="-26" width="52" height="52" class="key none side"/>
<rect rx="4" ry="4" x="-20" y="-24" width="40" height="40" class="key none"/>
<use href="#mdi:minus-circle-outline" xlink:href="#mdi:minus-circle-outline" x="-9" y="-13" height="18" width="18.0" class="key none tap glyph mdi:minus-circle-outline"/>
</g>
<g transform="translate(140, 161)" class="key none keypos-30">
<rect rx="6" ry="6" x="-26" y="-26" width="52" height="52" class="key none side"/>
<rect rx="4" ry="4" x="-20" y="-24" width="40" height="40" class="key none"/>
<use href="#mdi:minus-circle-outline" xlink:href="#mdi:minus-circle-outline" x="-9" y="-13" height="18" width="18.0" class="key none tap glyph mdi:minus-circle-outline"/>
</g>
<g transform="translate(196, 147)" class="key none keypos-31">
<rect rx="6" ry="6" x="-26" y="-26" width="52" height="52" class="key none side"/>
<rect rx="4" ry="4" x="-20" y="-24" width="40" height="40" class="key none"/>
<use href="#mdi:minus-circle-outline" xlink:href="#mdi:minus-circle-outline" x="-9" y="-13" height="18" width="18.0" class="key none tap glyph mdi:minus-circle-outline"/>
</g>
<g transform="translate(252, 140)" class="key none keypos-32">
<rect rx="6" ry="6" x="-26" y="-26" width="52" height="52" class="key none side"/>
<rect rx="4" ry="4" x="-20" y="-24" width="40" height="40" class="key none"/>
<use href="#mdi:minus-circle-outline" xlink:href="#mdi:minus-circle-outline" x="-9" y="-13" height="18" width="18.0" class="key none tap glyph mdi:minus-circle-outline"/>
</g>
<g transform="translate(308, 147)" class="key none keypos-33">
<rect rx="6" ry="6" x="-26" y="-26" width="52" height="52" class="key none side"/>
<rect rx="4" ry="4" x="-20" y="-24" width="40" height="40" class="key none"/>
<use href="#mdi:minus-circle-outline" xlink:href="#mdi:minus-circle-outline" x="-9" y="-13" height="18" width="18.0" class="key none tap glyph mdi:minus-circle-outline"/>
</g>
<g transform="translate(364, 154)" class="key none keypos-34">
<rect rx="6" ry="6" x="-26" y="-26" width="52" height="52" class="key none side"/>
<rect rx="4" ry="4" x="-20" y="-24" width="40" height="40" class="key none"/>
<use href="#mdi:minus-circle-outline" xlink:href="#mdi:minus-circle-outline" x="-9" y="-13" height="18" width="18.0" class="key none tap glyph mdi:minus-circle-outline"/>
</g>
<g transform="translate(476, 154)" class="key none keypos-35">
<rect rx="6" ry="6" x="-26" y="-26" width="52" height="52" class="key none side"/>
<rect rx="4" ry="4" x="-20" y="-24" width="40" height="40" class="key none"/>
<use href="#mdi:minus-circle-outline" xlink:href="#mdi:minus-circle-outline" x="-9" y="-13" height="18" width="18.0" class="key none tap glyph mdi:minus-circle-outline"/>
</g>
<g transform="translate(532, 147)" class="key none keypos-36">
<rect rx="6" ry="6" x="-26" y="-26" width="52" height="52" class="key none side"/>
<rect rx="4" ry="4" x="-20" y="-24" width="40" height="40" class="key none"/>
<use href="#mdi:minus-circle-outline" xlink:href="#mdi:minus-circle-outline" x="-9" y="-13" height="18" width="18.0" class="key none tap glyph mdi:minus-circle-outline"/>
</g>
<g transform="translate(588, 140)" class="key none keypos-37">
<rect rx="6" ry="6" x="-26" y="-26" width="52" height="52" class="key none side"/>
<rect rx="4" ry="4" x="-20" y="-24" width="40" height="40" class="key none"/>
<use href="#mdi:minus-circle-outline" xlink:href="#mdi:minus-circle-outline" x="-9" y="-13" height="18" width="18.0" class="key none tap glyph mdi:minus-circle-outline"/>
</g>
<g transform="translate(644, 147)" class="key none keypos-38">
<rect rx="6" ry="6" x="-26" y="-26" width="52" height="52" class="key none side"/>
<rect rx="4" ry="4" x="-20" y="-24" width="40" height="40" class="key none"/>
<use href="#mdi:minus-circle-outline" xlink:href="#mdi:minus-circle-outline" x="-9" y="-13" height="18" width="18.0" class="key none tap glyph mdi:minus-circle-outline"/>
</g>
<g transform="translate(700, 161)" class="key none keypos-39">
<rect rx="6" ry="6" x="-26" y="-26" width="52" height="52" class="key none side"/>
<rect rx="4" ry="4" x="-20" y="-24" width="40" height="40" class="key none"/>
<use href="#mdi:minus-circle-outline" xlink:href="#mdi:minus-circle-outline" x="-9" y="-13" height="18" width="18.0" class="key none tap glyph mdi:minus-circle-outline"/>
</g>
<g transform="translate(756, 161)" class="key none keypos-40">
<rect rx="6" ry="6" x="-26" y="-26" width="52" height="52" class="key none side"/>
<rect rx="4" ry="4" x="-20" y="-24" width="40" height="40" class="key none"/>
<use href="#mdi:minus-circle-outline" xlink:href="#mdi:minus-circle-outline" x="-9" y="-13" height="18" width="18.0" class="key none tap glyph mdi:minus-circle-outline"/>
</g>
<g transform="translate(812, 161)" class="key none keypos-41">
<rect rx="6" ry="6" x="-26" y="-26" width="52" height="52" class="key none side"/>
<rect rx="4" ry="4" x="-20" y="-24" width="40" height="40" class="key none"/>
<use href="#mdi:minus-circle-outline" xlink:href="#mdi:minus-circle-outline" x="-9" y="-13" height="18" width="18.0" class="key none tap glyph mdi:minus-circle-outline"/>
</g>
<g transform="translate(28, 217)" class="key none keypos-42">
<rect rx="6" ry="6" x="-26" y="-26" width="52" height="52" class="key none side"/>
<rect rx="4" ry="4" x="-20" y="-24" width="40" height="40" class="key none"/>
<use href="#mdi:minus-circle-outline" xlink:href="#mdi:minus-circle-outline" x="-9" y="-13" height="18" width="18.0" class="key none tap glyph mdi:minus-circle-outline"/>
</g>
<g transform="translate(84, 217)" class="key none keypos-43">
<rect rx="6" ry="6" x="-26" y="-26" width="52" height="52" class="key none side"/>
<rect rx="4" ry="4" x="-20" y="-24" width="40" height="40" class="key none"/>
<use href="#mdi:minus-circle-outline" xlink:href="#mdi:minus-circle-outline" x="-9" y="-13" height="18" width="18.0" class="key none tap glyph mdi:minus-circle-outline"/>
</g>
<g transform="translate(140, 217)" class="key none keypos-44">
<rect rx="6" ry="6" x="-26" y="-26" width="52" height="52" class="key none side"/>
<rect rx="4" ry="4" x="-20" y="-24" width="40" height="40" class="key none"/>
<use href="#mdi:minus-circle-outline" xlink:href="#mdi:minus-circle-outline" x="-9" y="-13" height="18" width="18.0" class="key none tap glyph mdi:minus-circle-outline"/>
</g>
<g transform="translate(196, 203)" class="key none keypos-45">
<rect rx="6" ry="6" x="-26" y="-26" width="52" height="52" class="key none side"/>
<rect rx="4" ry="4" x="-20" y="-24" width="40" height="40" class="key none"/>
<use href="#mdi:minus-circle-outline" xlink:href="#mdi:minus-circle-outline" x="-9" y="-13" height="18" width="18.0" class="key none tap glyph mdi:minus-circle-outline"/>
</g>
<g transform="translate(252, 196)" class="key none keypos-46">
<rect rx="6" ry="6" x="-26" y="-26" width="52" height="52" class="key none side"/>
<rect rx="4" ry="4" x="-20" y="-24" width="40" height="40" class="key none"/>
<use href="#mdi:minus-circle-outline" xlink:href="#mdi:minus-circle-outline" x="-9" y="-13" height="18" width="18.0" class="key none tap glyph mdi:minus-circle-outline"/>
</g>
<g transform="translate(308, 203)" class="key none keypos-47">
<rect rx="6" ry="6" x="-26" y="-26" width="52" height="52" class="key none side"/>
<rect rx="4" ry="4" x="-20" y="-24" width="40" height="40" class="key none"/>
<use href="#mdi:minus-circle-outline" xlink:href="#mdi:minus-circle-outline" x="-9" y="-13" height="18" width="18.0" class="key none tap glyph mdi:minus-circle-outline"/>
</g>
<g transform="translate(364, 210)" class="key none keypos-48">
<rect rx="6" ry="6" x="-26" y="-26" width="52" height="52" class="key none side"/>
<rect rx="4" ry="4" x="-20" y="-24" width="40" height="40" class="key none"/>
<use href="#mdi:minus-circle-outline" xlink:href="#mdi:minus-circle-outline" x="-9" y="-13" height="18" width="18.0" class="key none tap glyph mdi:minus-circle-outline"/>
</g>
<g transform="translate(476, 210)" class="key none keypos-49">
<rect rx="6" ry="6" x="-26" y="-26" width="52" height="52" class="key none side"/>
<rect rx="4" ry="4" x="-20" y="-24" width="40" height="40" class="key none"/>
<use href="#mdi:minus-circle-outline" xlink:href="#mdi:minus-circle-outline" x="-9" y="-13" height="18" width="18.0" class="key none tap glyph mdi:minus-circle-outline"/>
</g>
<g transform="translate(532, 203)" class="key none keypos-50">
<rect rx="6" ry="6" x="-26" y="-26" width="52" height="52" class="key none side"/>
<rect rx="4" ry="4" x="-20" y="-24" width="40" height="40" class="key none"/>
<use href="#mdi:minus-circle-outline" xlink:href="#mdi:minus-circle-outline" x="-9" y="-13" height="18" width="18.0" class="key none tap glyph mdi:minus-circle-outline"/>
</g>
<g transform="translate(588, 196)" class="key none keypos-51">
<rect rx="6" ry="6" x="-26" y="-26" width="52" height="52" class="key none side"/>
<rect rx="4" ry="4" x="-20" y="-24" width="40" height="40" class="key none"/>
<use href="#mdi:minus-circle-outline" xlink:href="#mdi:minus-circle-outline" x="-9" y="-13" height="18" width="18.0" class="key none tap glyph mdi:minus-circle-outline"/>
</g>
<g transform="translate(644, 203)" class="key none keypos-52">
<rect rx="6" ry="6" x="-26" y="-26" width="52" height="52" class="key none side"/>
<rect rx="4" ry="4" x="-20" y="-24" width="40" height="40" class="key none"/>
<use href="#mdi:minus-circle-outline" xlink:href="#mdi:minus-circle-outline" x="-9" y="-13" height="18" width="18.0" class="key none tap glyph mdi:minus-circle-outline"/>
</g>
<g transform="translate(700, 217)" class="key none keypos-53">
<rect rx="6" ry="6" x="-26" y="-26" width="52" height="52" class="key none side"/>
<rect rx="4" ry="4" x="-20" y="-24" width="40" height="40" class="key none"/>
<use href="#mdi:minus-circle-outline" xlink:href="#mdi:minus-circle-outline" x="-9" y="-13" height="18" width="18.0" class="key none tap glyph mdi:minus-circle-outline"/>
</g>
<g transform="translate(756, 217)" class="key none keypos-54">
<rect rx="6" ry="6" x="-26" y="-26" width="52" height="52" class="key none side"/>
<rect rx="4" ry="4" x="-20" y="-24" width="40" height="40" class="key none"/>
<use href="#mdi:minus-circle-outline" xlink:href="#mdi:minus-circle-outline" x="-9" y="-13" height="18" width="18.0" class="key none tap glyph mdi:minus-circle-outline"/>
</g>
<g transform="translate(812, 217)" class="key none keypos-55">
<rect rx="6" ry="6" x="-26" y="-26" width="52" height="52" class="key none side"/>
<rect rx="4" ry="4" x="-20" y="-24" width="40" height="40" class="key none"/>
<use href="#mdi:minus-circle-outline" xlink:href="#mdi:minus-circle-outline" x="-9" y="-13" height="18" width="18.0" class="key none tap glyph mdi:minus-circle-outline"/>
</g>
<g transform="translate(28, 273)" class="key none keypos-56">
<rect rx="6" ry="6" x="-26" y="-26" width="52" height="52" class="key none side"/>
<rect rx="4" ry="4" x="-20" y="-24" width="40" height="40" class="key none"/>
<use href="#mdi:minus-circle-outline" xlink:href="#mdi:minus-circle-outline" x="-9" y="-13" height="18" width="18.0" class="key none tap glyph mdi:minus-circle-outline"/>
</g>
<g transform="translate(84, 273)" class="key none keypos-57">
<rect rx="6" ry="6" x="-26" y="-26" width="52" height="52" class="key none side"/>
<rect rx="4" ry="4" x="-20" y="-24" width="40" height="40" class="key none"/>
<use href="#mdi:minus-circle-outline" xlink:href="#mdi:minus-circle-outline" x="-9" y="-13" height="18" width="18.0" class="key none tap glyph mdi:minus-circle-outline"/>
</g>
<g transform="translate(140, 273)" class="key none keypos-58">
<rect rx="6" ry="6" x="-26" y="-26" width="52" height="52" class="key none side"/>
<rect rx="4" ry="4" x="-20" y="-24" width="40" height="40" class="key none"/>
<use href="#mdi:minus-circle-outline" xlink:href="#mdi:minus-circle-outline" x="-9" y="-13" height="18" width="18.0" class="key none tap glyph mdi:minus-circle-outline"/>
</g>
<g transform="translate(196, 259)" class="key none keypos-59">
<rect rx="6" ry="6" x="-26" y="-26" width="52" height="52" class="key none side"/>
<rect rx="4" ry="4" x="-20" y="-24" width="40" height="40" class="key none"/>
<use href="#mdi:minus-circle-outline" xlink:href="#mdi:minus-circle-outline" x="-9" y="-13" height="18" width="18.0" class="key none tap glyph mdi:minus-circle-outline"/>
</g>
<g transform="translate(252, 252)" class="key none keypos-60">
<rect rx="6" ry="6" x="-26" y="-26" width="52" height="52" class="key none side"/>
<rect rx="4" ry="4" x="-20" y="-24" width="40" height="40" class="key none"/>
<use href="#mdi:minus-circle-outline" xlink:href="#mdi:minus-circle-outline" x="-9" y="-13" height="18" width="18.0" class="key none tap glyph mdi:minus-circle-outline"/>
</g>
<g transform="translate(308, 259)" class="key none keypos-61">
<rect rx="6" ry="6" x="-26" y="-26" width="52" height="52" class="key none side"/>
<rect rx="4" ry="4" x="-20" y="-24" width="40" height="40" class="key none"/>
<use href="#mdi:minus-circle-outline" xlink:href="#mdi:minus-circle-outline" x="-9" y="-13" height="18" width="18.0" class="key none tap glyph mdi:minus-circle-outline"/>
</g>
<g transform="translate(364, 266)" class="key none keypos-62">
<rect rx="6" ry="6" x="-26" y="-26" width="52" height="52" class="key none side"/>
<rect rx="4" ry="4" x="-20" y="-24" width="40" height="40" class="key none"/>
<use href="#mdi:minus-circle-outline" xlink:href="#mdi:minus-circle-outline" x="-9" y="-13" height="18" width="18.0" class="key none tap glyph mdi:minus-circle-outline"/>
</g>
<g transform="translate(476, 266)" class="key none keypos-63">
<rect rx="6" ry="6" x="-26" y="-26" width="52" height="52" class="key none side"/>
<rect rx="4" ry="4" x="-20" y="-24" width="40" height="40" class="key none"/>
<use href="#mdi:minus-circle-outline" xlink:href="#mdi:minus-circle-outline" x="-9" y="-13" height="18" width="18.0" class="key none tap glyph mdi:minus-circle-outline"/>
</g>
<g transform="translate(532, 259)" class="key none keypos-64">
<rect rx="6" ry="6" x="-26" y="-26" width="52" height="52" class="key none side"/>
<rect rx="4" ry="4" x="-20" y="-24" width="40" height="40" class="key none"/>
<use href="#mdi:minus-circle-outline" xlink:href="#mdi:minus-circle-outline" x="-9" y="-13" height="18" width="18.0" class="key none tap glyph mdi:minus-circle-outline"/>
</g>
<g transform="translate(588, 252)" class="key none keypos-65">
<rect rx="6" ry="6" x="-26" y="-26" width="52" height="52" class="key none side"/>
<rect rx="4" ry="4" x="-20" y="-24" width="40" height="40" class="key none"/>
<use href="#mdi:minus-circle-outline" xlink:href="#mdi:minus-circle-outline" x="-9" y="-13" height="18" width="18.0" class="key none tap glyph mdi:minus-circle-outline"/>
</g>
<g transform="translate(644, 259)" class="key none keypos-66">
<rect rx="6" ry="6" x="-26" y="-26" width="52" height="52" class="key none side"/>
<rect rx="4" ry="4" x="-20" y="-24" width="40" height="40" class="key none"/>
<use href="#mdi:minus-circle-outline" xlink:href="#mdi:minus-circle-outline" x="-9" y="-13" height="18" width="18.0" class="key none tap glyph mdi:minus-circle-outline"/>
</g>
<g transform="translate(700, 273)" class="key none keypos-67">
<rect rx="6" ry="6" x="-26" y="-26" width="52" height="52" class="key none side"/>
<rect rx="4" ry="4" x="-20" y="-24" width="40" height="40" class="key none"/>
<use href="#mdi:minus-circle-outline" xlink:href="#mdi:minus-circle-outline" x="-9" y="-13" height="18" width="18.0" class="key none tap glyph mdi:minus-circle-outline"/>
</g>
<g transform="translate(756, 273)" class="key none keypos-68">
<rect rx="6" ry="6" x="-26" y="-26" width="52" height="52" class="key none side"/>
<rect rx="4" ry="4" x="-20" y="-24" width="40" height="40" class="key none"/>
<use href="#mdi:minus-circle-outline" xlink:href="#mdi:minus-circle-outline" x="-9" y="-13" height="18" width="18.0" class="key none tap glyph mdi:minus-circle-outline"/>
</g>
<g transform="translate(812, 273)" class="key none keypos-69">
<rect rx="6" ry="6" x="-26" y="-26" width="52" height="52" class="key none side"/>
<rect rx="4" ry="4" x="-20" y="-24" width="40" height="40" class="key none"/>
<use href="#mdi:minus-circle-outline" xlink:href="#mdi:minus-circle-outline" x="-9" y="-13" height="18" width="18.0" class="key none tap glyph mdi:minus-circle-outline"/>
</g>
<g transform="translate(28, 329)" class="key none keypos-70">
<rect rx="6" ry="6" x="-26" y="-26" width="52" height="52" class="key none side"/>
<rect rx="4" ry="4" x="-20" y="-24" width="40" height="40" class="key none"/>
<use href="#mdi:minus-circle-outline" xlink:href="#mdi:minus-circle-outline" x="-9" y="-13" height="18" width="18.0" class="key none tap glyph mdi:minus-circle-outline"/>
</g>
<g transform="translate(84, 329)" class="key none keypos-71">
<rect rx="6" ry="6" x="-26" y="-26" width="52" height="52" class="key none side"/>
<rect rx="4" ry="4" x="-20" y="-24" width="40" height="40" class="key none"/>
<use href="#mdi:minus-circle-outline" xlink:href="#mdi:minus-circle-outline" x="-9" y="-13" height="18" width="18.0" class="key none tap glyph mdi:minus-circle-outline"/>
</g>
<g transform="translate(140, 329)" class="key none keypos-72">
<rect rx="6" ry="6" x="-26" y="-26" width="52" height="52" class="key none side"/>
<rect rx="4" ry="4" x="-20" y="-24" width="40" height="40" class="key none"/>
<use href="#mdi:minus-circle-outline" xlink:href="#mdi:minus-circle-outline" x="-9" y="-13" height="18" width="18.0" class="key none tap glyph mdi:minus-circle-outline"/>
</g>
<g transform="translate(196, 315)" class="key none keypos-73">
<rect rx="6" ry="6" x="-26" y="-26" width="52" height="52" class="key none side"/>
<rect rx="4" ry="4" x="-20" y="-24" width="40" height="40" class="key none"/>
<use href="#mdi:minus-circle-outline" xlink:href="#mdi:minus-circle-outline" x="-9" y="-13" height="18" width="18.0" class="key none tap glyph mdi:minus-circle-outline"/>
</g>
<g transform="translate(252, 308)" class="key none keypos-74">
<rect rx="6" ry="6" x="-26" y="-26" width="52" height="52" class="key none side"/>
<rect rx="4" ry="4" x="-20" y="-24" width="40" height="40" class="key none"/>
<use href="#mdi:minus-circle-outline" xlink:href="#mdi:minus-circle-outline" x="-9" y="-13" height="18" width="18.0" class="key none tap glyph mdi:minus-circle-outline"/>
</g>
<g transform="translate(308, 315)" class="key none keypos-75">
<rect rx="6" ry="6" x="-26" y="-26" width="52" height="52" class="key none side"/>
<rect rx="4" ry="4" x="-20" y="-24" width="40" height="40" class="key none"/>
<use href="#mdi:minus-circle-outline" xlink:href="#mdi:minus-circle-outline" x="-9" y="-13" height="18" width="18.0" class="key none tap glyph mdi:minus-circle-outline"/>
</g>
<g transform="translate(532, 315)" class="key none keypos-76">
<rect rx="6" ry="6" x="-26" y="-26" width="52" height="52" class="key none side"/>
<rect rx="4" ry="4" x="-20" y="-24" width="40" height="40" class="key none"/>
<use href="#mdi:minus-circle-outline" xlink:href="#mdi:minus-circle-outline" x="-9" y="-13" height="18" width="18.0" class="key none tap glyph mdi:minus-circle-outline"/>
</g>
<g transform="translate(588, 308)" class="key none keypos-77">
<rect rx="6" ry="6" x="-26" y="-26" width="52" height="52" class="key none side"/>
<rect rx="4" ry="4" x="-20" y="-24" width="40" height="40" class="key none"/>
<use href="#mdi:minus-circle-outline" xlink:href="#mdi:minus-circle-outline" x="-9" y="-13" height="18" width="18.0" class="key none tap glyph mdi:minus-circle-outline"/>
</g>
<g transform="translate(644, 315)" class="key none keypos-78">
<rect rx="6" ry="6" x="-26" y="-26" width="52" height="52" class="key none side"/>
<rect rx="4" ry="4" x="-20" y="-24" width="40" height="40" class="key none"/>
<use href="#mdi:minus-circle-outline" xlink:href="#mdi:minus-circle-outline" x="-9" y="-13" height="18" width="18.0" class="key none tap glyph mdi:minus-circle-outline"/>
</g>
<g transform="translate(700, 329)" class="key none keypos-79">
<rect rx="6" ry="6" x="-26" y="-26" width="52" height="52" class="key none side"/>
<rect rx="4" ry="4" x="-20" y="-24" width="40" height="40" class="key none"/>
<use href="#mdi:minus-circle-outline" xlink:href="#mdi:minus-circle-outline" x="-9" y="-13" height="18" width="18.0" class="key none tap glyph mdi:minus-circle-outline"/>
</g>
<g transform="translate(756, 329)" class="key none keypos-80">
<rect rx="6" ry="6" x="-26" y="-26" width="52" height="52" class="key none side"/>
<rect rx="4" ry="4" x="-20" y="-24" width="40" height="40" class="key none"/>
<use href="#mdi:minus-circle-outline" xlink:href="#mdi:minus-circle-outline" x="-9" y="-13" height="18" width="18.0" class="key none tap glyph mdi:minus-circle-outline"/>
</g>
<g transform="translate(812, 329)" class="key none keypos-81">
<rect rx="6" ry="6" x="-26" y="-26" width="52" height="52" class="key none side"/>
<rect rx="4" ry="4" x="-20" y="-24" width="40" height="40" class="key none"/>
<use href="#mdi:minus-circle-outline" xlink:href="#mdi:minus-circle-outline" x="-9" y="-13" height="18" width="18.0" class="key none tap glyph mdi:minus-circle-outline"/>
</g>
<g transform="translate(182, 455)" class="key none keypos-82">
<rect rx="6" ry="6" x="-26" y="-26" width="52" height="52" class="key none side"/>
<rect rx="4" ry="4" x="-20" y="-24" width="40" height="40" class="key none"/>
<use href="#mdi:minus-circle-outline" xlink:href="#mdi:minus-circle-outline" x="-9" y="-13" height="18" width="18.0" class="key none tap glyph mdi:minus-circle-outline"/>
</g>
<g transform="translate(238, 399)" class="key none keypos-83">
<rect rx="6" ry="6" x="-26" y="-26" width="52" height="52" class="key none side"/>
<rect rx="4" ry="4" x="-20" y="-24" width="40" height="40" class="key none"/>
<use href="#mdi:minus-circle-outline" xlink:href="#mdi:minus-circle-outline" x="-9" y="-13" height="18" width="18.0" class="key none tap glyph mdi:minus-circle-outline"/>
</g>
<g transform="translate(238, 455)" class="key none keypos-84">
<rect rx="6" ry="6" x="-26" y="-26" width="52" height="52" class="key none side"/>
<rect rx="4" ry="4" x="-20" y="-24" width="40" height="40" class="key none"/>
<use href="#mdi:minus-circle-outline" xlink:href="#mdi:minus-circle-outline" x="-9" y="-13" height="18" width="18.0" class="key none tap glyph mdi:minus-circle-outline"/>
</g>
<g transform="translate(238, 511)" class="key none keypos-85">
<rect rx="6" ry="6" x="-26" y="-26" width="52" height="52" class="key none side"/>
<rect rx="4" ry="4" x="-20" y="-24" width="40" height="40" class="key none"/>
<use href="#mdi:minus-circle-outline" xlink:href="#mdi:minus-circle-outline" x="-9" y="-13" height="18" width="18.0" class="key none tap glyph mdi:minus-circle-outline"/>
</g>
<g transform="translate(294, 455)" class="key none keypos-86">
<rect rx="6" ry="6" x="-26" y="-26" width="52" height="52" class="key none side"/>
<rect rx="4" ry="4" x="-20" y="-24" width="40" height="40" class="key none"/>
<use href="#mdi:minus-circle-outline" xlink:href="#mdi:minus-circle-outline" x="-9" y="-13" height="18" width="18.0" class="key none tap glyph mdi:minus-circle-outline"/>
</g>
<g transform="translate(546, 455)" class="key none keypos-87">
<rect rx="6" ry="6" x="-26" y="-26" width="52" height="52" class="key none side"/>
<rect rx="4" ry="4" x="-20" y="-24" width="40" height="40" class="key none"/>
<use href="#mdi:minus-circle-outline" xlink:href="#mdi:minus-circle-outline" x="-9" y="-13" height="18" width="18.0" class="key none tap glyph mdi:minus-circle-outline"/>
</g>
<g transform="translate(602, 511)" class="key none keypos-88">
<rect rx="6" ry="6" x="-26" y="-26" width="52" height="52" class="key none side"/>
<rect rx="4" ry="4" x="-20" y="-24" width="40" height="40" class="key none"/>
<use href="#mdi:minus-circle-outline" xlink:href="#mdi:minus-circle-outline" x="-9" y="-13" height="18" width="18.0" class="key none tap glyph mdi:minus-circle-outline"/>
</g>
<g transform="translate(602, 455)" class="key none keypos-89">
<rect rx="6" ry="6" x="-26" y="-26" width="52" height="52" class="key none side"/>
<rect rx="4" ry="4" x="-20" y="-24" width="40" height="40" class="key none"/>
<use href="#mdi:minus-circle-outline" xlink:href="#mdi:minus-circle-outline" x="-9" y="-13" height="18" width="18.0" class="key none tap glyph mdi:minus-circle-outline"/>
</g>
<g transform="translate(602, 399)" class="key none keypos-90">
<rect rx="6" ry="6" x="-26" y="-26" width="52" height="52" class="key none side"/>
<rect rx="4" ry="4" x="-20" y="-24" width="40" height="40" class="key none"/>
<use href="#mdi:minus-circle-outline" xlink:href="#mdi:minus-circle-outline" x="-9" y="-13" height="18" width="18.0" class="key none tap glyph mdi:minus-circle-outline"/>
</g>
<g transform="translate(658, 455)" class="key none keypos-91">
<rect rx="6" ry="6" x="-26" y="-26" width="52" height="52" class="key none side"/>
<rect rx="4" ry="4" x="-20" y="-24" width="40" height="40" class="key none"/>
<use href="#mdi:minus-circle-outline" xlink:href="#mdi:minus-circle-outline" x="-9" y="-13" height="18" width="18.0" class="key none tap glyph mdi:minus-circle-outline"/>
</g>
</g>
</g>
</svg>
